# xmcd
#
# Track frame offsets:
#	150
#	11604
#	28880
#	40210
#	52763
#	72471
#	83917
#	97151
#	107917
#	118912
#	134261
#	146144
#	164700
#	174233
#	183791
#
# Disc length: 2577 seconds
#
# Revision: 0
# Processed by: cddbd v1.5.2PL0 Copyright (c) Steve Scherf et al.
# Submitted via: audiograbber 1.83.01
#
DISCID=d60a0f0f
DTITLE=Bob Dylan - The Bootleg Series Vol. 15 1967-1969 Travelin' Thru [CD 1)
DYEAR=2019
DGENRE=Folk/Rock
TTITLE0=Drifter's Escape [John Wesley Harding sessions - alternate versions] [t
TTITLE0=ake 1]
TTITLE1=I Dreamed I Saw St. Augustine [John Wesley Harding sessions - alternate
TTITLE1=versions] [take 2]
TTITLE2=All Along The Watchtower [John Wesley Harding sessions - alternate vers
TTITLE2=ions] [take 3]
TTITLE3=John Wesley Harding [John Wesley Harding sessions - alternate versions]
TTITLE3=[take 1]
TTITLE4=As I Went Out One Morning [John Wesley Harding sessions - alternate ver
TTITLE4=sions] [take 1]
TTITLE5=I Pity The Poor Immigrant [John Wesley Harding sessions - alternate ver
TTITLE5=sions] [take 4]
TTITLE6=I Am A Lonesome Hobo [John Wesley Harding sessions - alternate versions
TTITLE6=] [take 4]
TTITLE7=I Threw It All Away [Nashville Skyline sessions - alternate versions an
TTITLE7=d outtake] [take 1]
TTITLE8=To Be Alone With You [Nashville Skyline sessions - alternate versions a
TTITLE8=nd outtake] [take 1]
TTITLE9=Lay, Lady, Lay [Nashville Skyline sessions - alternate versions and out
TTITLE9=take] [take 2]
TTITLE10=One More Night [Nashville Skyline sessions - alternate versions and ou
TTITLE10=ttake] [take 2]
TTITLE11=Western Road [Nashville Skyline sessions - alternate versions and outt
TTITLE11=ake] [take 1]
TTITLE12=Peggy Day [Nashville Skyline sessions - alternate versions and outtake
TTITLE12=] [take 1]
TTITLE13=Tell Me That It Isn't True [Nashville Skyline sessions - alternate ver
TTITLE13=sions and outtake] [take 2]
TTITLE14=Country Pie [Nashville Skyline sessions - alternate versions and outta
TTITLE14=ke] [take 2]
EXTD=
EXTT0=
EXTT1=
EXTT2=
EXTT3=
EXTT4=
EXTT5=
EXTT6=
EXTT7=
EXTT8=
EXTT9=
EXTT10=
EXTT11=
EXTT12=
EXTT13=
EXTT14=
PLAYORDER=
